# Blender 3.5.0
# www.blender.org
mtllib bird_legs.mtl
o lr_leg_1
v -1.051585 -2.232401 0.480578
v -0.111134 -1.644635 0.480578
v -1.051585 -2.232401 0.650331
v -0.111134 -1.644635 0.650331
v -0.965890 -2.369518 0.480578
v -0.025438 -1.781751 0.480578
v -0.965890 -2.369518 0.650331
v -0.025438 -1.781751 0.650331
vn -0.5300 0.8480 -0.0000
vn -0.0000 -0.0000 1.0000
vn 0.5300 -0.8480 -0.0000
vn -0.0000 -0.0000 -1.0000
vn -0.8480 -0.5300 -0.0000
vn 0.8480 0.5300 -0.0000
vt 0.375000 0.000000
vt 0.375000 1.000000
vt 0.125000 0.750000
vt 0.625000 0.000000
vt 0.625000 1.000000
vt 0.875000 0.750000
vt 0.375000 0.250000
vt 0.125000 0.500000
vt 0.625000 0.250000
vt 0.875000 0.500000
vt 0.375000 0.750000
vt 0.625000 0.750000
vt 0.375000 0.500000
vt 0.625000 0.500000
s 0
usemtl Legs
f 1/1/1 3/7/1 4/9/1 2/4/1
f 3/7/2 7/13/2 8/14/2 4/9/2
f 7/13/3 5/11/3 6/12/3 8/14/3
f 5/11/4 1/2/4 2/5/4 6/12/4
f 3/8/5 1/3/5 5/11/5 7/13/5
f 8/14/6 6/12/6 2/6/6 4/10/6
o lr_leg_2
v -2.080586 -2.399453 0.480578
v -0.988579 -2.205961 0.480578
v -2.080586 -2.399453 0.650331
v -0.988579 -2.205961 0.650331
v -2.052375 -2.558666 0.480578
v -0.960368 -2.365174 0.480578
v -2.052375 -2.558666 0.650331
v -0.960368 -2.365174 0.650331
vn -0.1745 0.9847 -0.0000
vn -0.0000 -0.0000 1.0000
vn 0.1745 -0.9847 -0.0000
vn -0.0000 -0.0000 -1.0000
vn -0.9847 -0.1745 -0.0000
vn 0.9847 0.1745 -0.0000
vt 0.375000 0.000000
vt 0.375000 1.000000
vt 0.125000 0.750000
vt 0.625000 0.000000
vt 0.625000 1.000000
vt 0.875000 0.750000
vt 0.375000 0.250000
vt 0.125000 0.500000
vt 0.625000 0.250000
vt 0.875000 0.500000
vt 0.375000 0.750000
vt 0.625000 0.750000
vt 0.375000 0.500000
vt 0.625000 0.500000
s 0
usemtl Legs
f 9/15/7 11/21/7 12/23/7 10/18/7
f 11/21/8 15/27/8 16/28/8 12/23/8
f 15/27/9 13/25/9 14/26/9 16/28/9
f 13/25/10 9/16/10 10/19/10 14/26/10
f 11/22/11 9/17/11 13/25/11 15/27/11
f 16/28/12 14/26/12 10/20/12 12/24/12
o lr_toe_middle
v -2.050642 -2.805440 0.591306
v -2.050642 -2.514816 0.591306
v -2.050642 -2.805440 0.532149
v -2.050642 -2.514816 0.532149
v -1.942756 -2.805440 0.591306
v -1.942756 -2.514816 0.591306
v -1.942756 -2.805440 0.532149
v -1.942756 -2.514816 0.532149
vn -1.0000 -0.0000 -0.0000
vn -0.0000 -0.0000 -1.0000
vn 1.0000 -0.0000 -0.0000
vn -0.0000 -0.0000 1.0000
vn -0.0000 -1.0000 -0.0000
vn -0.0000 1.0000 -0.0000
vt 0.375000 0.000000
vt 0.375000 1.000000
vt 0.125000 0.750000
vt 0.625000 0.000000
vt 0.625000 1.000000
vt 0.875000 0.750000
vt 0.375000 0.250000
vt 0.125000 0.500000
vt 0.625000 0.250000
vt 0.875000 0.500000
vt 0.375000 0.750000
vt 0.625000 0.750000
vt 0.375000 0.500000
vt 0.625000 0.500000
s 0
usemtl Legs
f 17/29/13 18/32/13 20/37/13 19/35/13
f 19/35/14 20/37/14 24/42/14 23/41/14
f 23/41/15 24/42/15 22/40/15 21/39/15
f 21/39/16 22/40/16 18/33/16 17/30/16
f 19/36/17 23/41/17 21/39/17 17/31/17
f 24/42/18 20/38/18 18/34/18 22/40/18
o lr_toe_left
v -2.050642 -2.801642 0.445475
v -2.050642 -2.531969 0.552134
v -2.050642 -2.779479 0.389436
v -2.050642 -2.509805 0.496095
v -1.942756 -2.801642 0.445475
v -1.942756 -2.531969 0.552134
v -1.942756 -2.779479 0.389436
v -1.942756 -2.509805 0.496095
vn -1.0000 -0.0000 -0.0000
vn -0.0000 0.3678 -0.9299
vn 1.0000 -0.0000 -0.0000
vn -0.0000 -0.3678 0.9299
vn -0.0000 -0.9299 -0.3678
vn -0.0000 0.9299 0.3678
vt 0.375000 0.000000
vt 0.375000 1.000000
vt 0.125000 0.750000
vt 0.625000 0.000000
vt 0.625000 1.000000
vt 0.875000 0.750000
vt 0.375000 0.250000
vt 0.125000 0.500000
vt 0.625000 0.250000
vt 0.875000 0.500000
vt 0.375000 0.750000
vt 0.625000 0.750000
vt 0.375000 0.500000
vt 0.625000 0.500000
s 0
usemtl Legs
f 25/43/19 26/46/19 28/51/19 27/49/19
f 27/49/20 28/51/20 32/56/20 31/55/20
f 31/55/21 32/56/21 30/54/21 29/53/21
f 29/53/22 30/54/22 26/47/22 25/44/22
f 27/50/23 31/55/23 29/53/23 25/45/23
f 32/56/24 28/52/24 26/48/24 30/54/24
o lr_toe_right
v -2.050642 -2.784343 0.741780
v -2.050642 -2.514128 0.634794
v -2.050642 -2.806121 0.686776
v -2.050642 -2.535905 0.579790
v -1.942756 -2.784343 0.741780
v -1.942756 -2.514128 0.634794
v -1.942756 -2.806121 0.686776
v -1.942756 -2.535905 0.579790
vn -1.0000 -0.0000 -0.0000
vn -0.0000 -0.3681 -0.9298
vn 1.0000 -0.0000 -0.0000
vn -0.0000 0.3681 0.9298
vn -0.0000 -0.9298 0.3681
vn -0.0000 0.9298 -0.3681
vt 0.375000 0.000000
vt 0.375000 1.000000
vt 0.125000 0.750000
vt 0.625000 0.000000
vt 0.625000 1.000000
vt 0.875000 0.750000
vt 0.375000 0.250000
vt 0.125000 0.500000
vt 0.625000 0.250000
vt 0.875000 0.500000
vt 0.375000 0.750000
vt 0.625000 0.750000
vt 0.375000 0.500000
vt 0.625000 0.500000
s 0
usemtl Legs
f 33/57/25 34/60/25 36/65/25 35/63/25
f 35/63/26 36/65/26 40/70/26 39/69/26
f 39/69/27 40/70/27 38/68/27 37/67/27
f 37/67/28 38/68/28 34/61/28 33/58/28
f 35/64/29 39/69/29 37/67/29 33/59/29
f 40/70/30 36/66/30 34/62/30 38/68/30
o ll_toe_right
v -2.050643 -2.784343 -0.389790
v -2.050643 -2.514128 -0.496776
v -2.050643 -2.806121 -0.444794
v -2.050643 -2.535905 -0.551780
v -1.942757 -2.784343 -0.389790
v -1.942757 -2.514128 -0.496776
v -1.942757 -2.806121 -0.444794
v -1.942757 -2.535905 -0.551780
vn -1.0000 -0.0000 -0.0000
vn -0.0000 -0.3681 -0.9298
vn 1.0000 -0.0000 -0.0000
vn -0.0000 0.3681 0.9298
vn -0.0000 -0.9298 0.3681
vn -0.0000 0.9298 -0.3681
vt 0.375000 0.000000
vt 0.375000 1.000000
vt 0.125000 0.750000
vt 0.625000 0.000000
vt 0.625000 1.000000
vt 0.875000 0.750000
vt 0.375000 0.250000
vt 0.125000 0.500000
vt 0.625000 0.250000
vt 0.875000 0.500000
vt 0.375000 0.750000
vt 0.625000 0.750000
vt 0.375000 0.500000
vt 0.625000 0.500000
s 0
usemtl Legs
f 41/71/31 42/74/31 44/79/31 43/77/31
f 43/77/32 44/79/32 48/84/32 47/83/32
f 47/83/33 48/84/33 46/82/33 45/81/33
f 45/81/34 46/82/34 42/75/34 41/72/34
f 43/78/35 47/83/35 45/81/35 41/73/35
f 48/84/36 44/80/36 42/76/36 46/82/36
o ll_toe_middle
v -2.050642 -2.805440 -0.532149
v -2.050642 -2.514816 -0.532149
v -2.050642 -2.805440 -0.591307
v -2.050642 -2.514816 -0.591307
v -1.942756 -2.805440 -0.532149
v -1.942756 -2.514816 -0.532149
v -1.942756 -2.805440 -0.591307
v -1.942756 -2.514816 -0.591307
vn -1.0000 -0.0000 -0.0000
vn -0.0000 -0.0000 -1.0000
vn 1.0000 -0.0000 -0.0000
vn -0.0000 -0.0000 1.0000
vn -0.0000 -1.0000 -0.0000
vn -0.0000 1.0000 -0.0000
vt 0.375000 0.000000
vt 0.375000 1.000000
vt 0.125000 0.750000
vt 0.625000 0.000000
vt 0.625000 1.000000
vt 0.875000 0.750000
vt 0.375000 0.250000
vt 0.125000 0.500000
vt 0.625000 0.250000
vt 0.875000 0.500000
vt 0.375000 0.750000
vt 0.625000 0.750000
vt 0.375000 0.500000
vt 0.625000 0.500000
s 0
usemtl Legs
f 49/85/37 50/88/37 52/93/37 51/91/37
f 51/91/38 52/93/38 56/98/38 55/97/38
f 55/97/39 56/98/39 54/96/39 53/95/39
f 53/95/40 54/96/40 50/89/40 49/86/40
f 51/92/41 55/97/41 53/95/41 49/87/41
f 56/98/42 52/94/42 50/90/42 54/96/42
o ll_toe_left
v -2.050642 -2.801642 -0.686095
v -2.050642 -2.531969 -0.579436
v -2.050642 -2.779479 -0.742134
v -2.050642 -2.509805 -0.635475
v -1.942756 -2.801642 -0.686095
v -1.942756 -2.531969 -0.579436
v -1.942756 -2.779479 -0.742134
v -1.942756 -2.509805 -0.635475
vn -1.0000 -0.0000 -0.0000
vn -0.0000 0.3678 -0.9299
vn 1.0000 -0.0000 -0.0000
vn -0.0000 -0.3678 0.9299
vn -0.0000 -0.9299 -0.3678
vn -0.0000 0.9299 0.3678
vt 0.375000 0.000000
vt 0.375000 1.000000
vt 0.125000 0.750000
vt 0.625000 0.000000
vt 0.625000 1.000000
vt 0.875000 0.750000
vt 0.375000 0.250000
vt 0.125000 0.500000
vt 0.625000 0.250000
vt 0.875000 0.500000
vt 0.375000 0.750000
vt 0.625000 0.750000
vt 0.375000 0.500000
vt 0.625000 0.500000
s 0
usemtl Legs
f 57/99/43 58/102/43 60/107/43 59/105/43
f 59/105/44 60/107/44 64/112/44 63/111/44
f 63/111/45 64/112/45 62/110/45 61/109/45
f 61/109/46 62/110/46 58/103/46 57/100/46
f 59/106/47 63/111/47 61/109/47 57/101/47
f 64/112/48 60/108/48 58/104/48 62/110/48
o ll_leg_2
v -2.080586 -2.399453 -0.650330
v -0.988579 -2.205961 -0.650330
v -2.080586 -2.399453 -0.480578
v -0.988579 -2.205961 -0.480578
v -2.052375 -2.558666 -0.650330
v -0.960368 -2.365174 -0.650330
v -2.052375 -2.558666 -0.480578
v -0.960368 -2.365174 -0.480578
vn -0.1745 0.9847 -0.0000
vn -0.0000 -0.0000 1.0000
vn 0.1745 -0.9847 -0.0000
vn -0.0000 -0.0000 -1.0000
vn -0.9847 -0.1745 -0.0000
vn 0.9847 0.1745 -0.0000
vt 0.375000 0.000000
vt 0.375000 1.000000
vt 0.125000 0.750000
vt 0.625000 0.000000
vt 0.625000 1.000000
vt 0.875000 0.750000
vt 0.375000 0.250000
vt 0.125000 0.500000
vt 0.625000 0.250000
vt 0.875000 0.500000
vt 0.375000 0.750000
vt 0.625000 0.750000
vt 0.375000 0.500000
vt 0.625000 0.500000
s 0
usemtl Legs
f 65/113/49 67/119/49 68/121/49 66/116/49
f 67/119/50 71/125/50 72/126/50 68/121/50
f 71/125/51 69/123/51 70/124/51 72/126/51
f 69/123/52 65/114/52 66/117/52 70/124/52
f 67/120/53 65/115/53 69/123/53 71/125/53
f 72/126/54 70/124/54 66/118/54 68/122/54
o ll_leg_1
v -1.051585 -2.232401 -0.650330
v -0.111134 -1.644635 -0.650330
v -1.051585 -2.232401 -0.480578
v -0.111134 -1.644635 -0.480578
v -0.965890 -2.369518 -0.650330
v -0.025438 -1.781751 -0.650330
v -0.965890 -2.369518 -0.480578
v -0.025438 -1.781751 -0.480578
vn -0.5300 0.8480 -0.0000
vn -0.0000 -0.0000 1.0000
vn 0.5300 -0.8480 -0.0000
vn -0.0000 -0.0000 -1.0000
vn -0.8480 -0.5300 -0.0000
vn 0.8480 0.5300 -0.0000
vt 0.375000 0.000000
vt 0.375000 1.000000
vt 0.125000 0.750000
vt 0.625000 0.000000
vt 0.625000 1.000000
vt 0.875000 0.750000
vt 0.375000 0.250000
vt 0.125000 0.500000
vt 0.625000 0.250000
vt 0.875000 0.500000
vt 0.375000 0.750000
vt 0.625000 0.750000
vt 0.375000 0.500000
vt 0.625000 0.500000
s 0
usemtl Legs
f 73/127/55 75/133/55 76/135/55 74/130/55
f 75/133/56 79/139/56 80/140/56 76/135/56
f 79/139/57 77/137/57 78/138/57 80/140/57
f 77/137/58 73/128/58 74/131/58 78/138/58
f 75/134/59 73/129/59 77/137/59 79/139/59
f 80/140/60 78/138/60 74/132/60 76/136/60
