# Blender 3.5.0
# www.blender.org
mtllib bird_tail.mtl
o tail_2
v -4.228311 0.431044 0.000000
v -3.457317 -0.151843 -0.122253
v -4.275724 0.854596 -0.197811
v -4.781532 1.476617 0.000000
v -4.275724 0.854596 0.197811
v -3.457317 -0.151843 0.122253
v -3.534039 0.533499 -0.197811
v -4.352446 1.539937 -0.122253
v -4.352446 1.539937 0.122253
v -3.534039 0.533499 0.197811
v -3.028231 -0.088523 0.000000
v -3.581453 0.957050 0.000000
v -4.312963 0.633825 -0.116270
v -3.831919 0.042259 -0.071858
v -3.859786 0.291214 -0.188129
v -3.378741 -0.300352 0.000000
v -3.831919 0.042259 0.071858
v -4.610270 0.999440 0.000000
v -4.638142 1.248400 -0.116270
v -4.312963 0.633825 0.116270
v -4.638142 1.248400 0.116270
v -3.859786 0.291214 0.188129
v -3.126526 -0.263139 -0.071858
v -3.126526 -0.263139 0.071858
v -3.904882 0.694047 -0.232542
v -3.423831 0.102474 -0.188130
v -4.683238 1.651233 -0.071858
v -4.385932 1.285620 -0.188130
v -4.385932 1.285620 0.188130
v -4.683238 1.651233 0.071858
v -3.423831 0.102474 0.188130
v -3.904882 0.694047 0.232542
v -3.171622 0.139694 -0.116270
v -3.949978 1.096880 -0.188129
v -4.431023 1.688446 0.000000
v -3.949978 1.096880 0.188129
v -3.171622 0.139694 0.116270
v -3.496800 0.754270 -0.116270
v -3.199493 0.388654 0.000000
v -3.977844 1.345835 -0.071858
v -3.977844 1.345835 0.071858
v -3.496800 0.754270 0.116270
v -3.658552 0.069686 -0.155191
vn -0.6465 -0.5643 -0.5134
vn -0.4379 -0.6981 -0.5665
vn -0.7788 -0.5234 -0.3457
vn -0.7788 -0.5234 0.3457
vn -0.6465 -0.5643 0.5134
vn -0.1118 -0.6662 -0.7374
vn -0.1458 -0.1245 -0.9814
vn -0.6115 0.0187 -0.7910
vn -0.2673 -0.0467 0.9625
vn -0.1025 -0.2368 0.9661
vn 0.0602 -0.2577 -0.9643
vn -0.0940 -0.0017 -0.9956
vn -0.8714 0.4905 -0.0000
vn -0.0940 -0.0017 0.9956
vn 0.0602 -0.2577 0.9643
vn 0.4541 0.2403 -0.8579
vn 0.3352 0.4292 -0.8387
vn 0.4379 0.6981 0.5665
vn 0.3483 0.2725 0.8969
vn 0.8426 0.3024 0.4456
vn 0.7788 0.5234 0.3457
vn 0.6937 0.3671 0.6197
vn 0.4541 0.2403 0.8579
vn 0.6465 0.5643 0.5134
vn 0.4429 0.4196 0.7923
vn 0.3352 0.4292 0.8387
vn 0.7002 0.7139 -0.0000
vn 0.6031 0.7977 -0.0000
vn 0.4379 0.6981 -0.5665
vn 0.6465 0.5643 -0.5134
vn 0.4429 0.4196 -0.7923
vn 0.3483 0.2725 -0.8969
vn 0.7788 0.5234 -0.3457
vn 0.6937 0.3671 -0.6197
vn 0.8426 0.3024 -0.4456
vn 0.6115 -0.0187 0.7910
vn 0.2833 -0.0737 0.9562
vn 0.2673 0.0467 0.9625
vn 0.1458 0.1245 0.9814
vn 0.0498 0.1150 0.9921
vn 0.1025 0.2368 0.9661
vn 0.1118 0.6662 0.7374
vn -0.1460 0.9893 -0.0000
vn 0.1118 0.6662 -0.7374
vn 0.1025 0.2368 -0.9661
vn 0.0498 0.1150 -0.9921
vn 0.1458 0.1245 -0.9814
vn 0.2673 0.0467 -0.9625
vn 0.2833 -0.0737 -0.9562
vn 0.6115 -0.0187 -0.7910
vn 0.0940 0.0017 0.9956
vn -0.0498 -0.1150 0.9921
vn -0.1458 -0.1245 0.9814
vn -0.0602 0.2577 0.9643
vn -0.2833 0.0737 0.9562
vn -0.6115 0.0187 0.7910
vn -0.0602 0.2577 -0.9643
vn -0.2833 0.0737 -0.9562
vn -0.2673 -0.0467 -0.9625
vn 0.0940 0.0017 -0.9956
vn -0.0498 -0.1150 -0.9921
vn -0.1025 -0.2368 -0.9661
vn 0.8714 -0.4905 -0.0000
vn 0.1460 -0.9893 -0.0000
vn -0.1118 -0.6662 0.7374
vn -0.3352 -0.4292 0.8387
vn -0.4429 -0.4196 0.7923
vn -0.3483 -0.2725 0.8969
vn -0.4541 -0.2403 0.8579
vn -0.6937 -0.3671 0.6197
vn -0.8426 -0.3024 0.4456
vn -0.8426 -0.3024 -0.4456
vn -0.6937 -0.3671 -0.6197
vn -0.4541 -0.2403 -0.8579
vn -0.4379 -0.6981 0.5665
vn -0.6031 -0.7977 -0.0000
vn -0.7002 -0.7139 -0.0000
vn -0.3483 -0.2725 -0.8969
vn -0.4429 -0.4196 -0.7923
vn -0.3352 -0.4292 -0.8387
vt 0.181819 0.000000
vt 0.909091 0.000000
vt 0.727273 0.000000
vt 0.545455 0.000000
vt 0.363637 0.000000
vt 0.272728 0.157461
vt 1.000000 0.157461
vt 0.090910 0.157461
vt 0.818182 0.157461
vt 0.636364 0.157461
vt 0.454546 0.157461
vt 0.181819 0.314921
vt 0.000000 0.314921
vt 0.909091 0.314921
vt 0.727273 0.314921
vt 0.545455 0.314921
vt 0.363637 0.314921
vt 0.454546 0.472382
vt 0.636364 0.472382
vt 0.818182 0.472382
vt 0.090910 0.472382
vt 0.272728 0.472382
vt 0.954545 0.078731
vt 0.136365 0.078731
vt 0.318182 0.078731
vt 0.227273 0.078731
vt 0.181819 0.157461
vt 0.363637 0.157461
vt 0.500000 0.078731
vt 0.409092 0.078731
vt 0.772727 0.078731
vt 0.863636 0.078731
vt 0.909091 0.157461
vt 0.590909 0.078731
vt 0.681818 0.078731
vt 0.727273 0.157461
vt 0.545455 0.157461
vt 0.318182 0.236191
vt 0.409092 0.236191
vt 0.136365 0.236191
vt 0.227273 0.236191
vt 0.863636 0.236191
vt 0.045455 0.236191
vt 0.954545 0.236191
vt 0.681818 0.236191
vt 0.772727 0.236191
vt 0.500000 0.236191
vt 0.590909 0.236191
vt 0.272728 0.314921
vt 0.090910 0.314921
vt 0.818182 0.314921
vt 0.636364 0.314921
vt 0.454546 0.314921
vt 0.136365 0.393651
vt 0.227273 0.393651
vt 0.409092 0.393651
vt 0.318182 0.393651
vt 0.863636 0.393651
vt 0.045455 0.393651
vt 0.681818 0.393651
vt 0.772727 0.393651
vt 0.500000 0.393651
vt 0.590909 0.393651
vt 0.227273 0.157461
s 0
usemtl Feathers
f 1/1/1 13/24/1 14/26/1
f 2/6/2 16/28/2 14/25/2
f 1/2/3 18/32/3 13/23/3
f 1/3/4 20/35/4 18/31/4
f 1/4/5 17/29/5 20/34/5
f 2/6/6 23/38/6 16/28/6
f 3/8/7 25/40/7 15/27/7
f 4/9/8 27/42/8 19/33/8
f 5/10/9 29/45/9 21/36/9
f 6/11/10 31/47/10 22/37/10
f 2/6/11 26/41/11 23/38/11
f 3/8/12 28/43/12 25/40/12
f 4/9/13 30/46/13 27/42/13
f 5/10/14 32/48/14 29/45/14
f 6/11/15 24/39/15 31/47/15
f 7/12/16 38/55/16 33/49/16
f 8/13/17 40/59/17 34/50/17
f 9/15/18 41/61/18 35/51/18
f 10/16/19 42/63/19 36/52/19
f 11/17/20 39/56/20 37/53/20
f 39/56/21 12/18/21 42/62/21
f 39/56/22 42/62/22 37/53/22
f 37/53/23 42/62/23 10/16/23
f 42/63/24 12/19/24 41/60/24
f 42/63/25 41/60/25 36/52/25
f 36/52/26 41/60/26 9/15/26
f 41/61/27 12/20/27 40/58/27
f 41/61/28 40/58/28 35/51/28
f 35/51/29 40/58/29 8/14/29
f 40/59/30 12/21/30 38/54/30
f 40/59/31 38/54/31 34/50/31
f 34/50/32 38/54/32 7/12/32
f 38/55/33 12/22/33 39/57/33
f 38/55/34 39/57/34 33/49/34
f 33/49/35 39/57/35 11/17/35
f 24/39/36 11/17/36 37/53/36
f 24/39/37 37/53/37 31/47/37
f 31/47/38 37/53/38 10/16/38
f 32/48/39 10/16/39 36/52/39
f 32/48/40 36/52/40 29/45/40
f 29/45/41 36/52/41 9/15/41
f 30/46/42 9/15/42 35/51/42
f 30/46/43 35/51/43 27/42/43
f 27/42/44 35/51/44 8/14/44
f 28/43/45 8/13/45 34/50/45
f 28/43/46 34/50/46 25/40/46
f 25/40/47 34/50/47 7/12/47
f 26/41/48 7/12/48 33/49/48
f 26/41/49 33/49/49 23/38/49
f 23/38/50 33/49/50 11/17/50
f 31/47/51 10/16/51 32/48/51
f 31/47/52 32/48/52 22/37/52
f 22/37/53 32/48/53 5/10/53
f 29/45/54 9/15/54 30/46/54
f 29/45/55 30/46/55 21/36/55
f 21/36/56 30/46/56 4/9/56
f 27/42/57 8/14/57 28/44/57
f 27/42/58 28/44/58 19/33/58
f 19/33/59 28/44/59 3/7/59
f 25/40/60 7/12/60 26/41/60
f 25/40/61 26/41/61 15/27/61
f 15/27/62 26/41/62 2/6/62 43/64/62
f 23/38/63 11/17/63 24/39/63
f 23/38/64 24/39/64 16/28/64
f 16/28/65 24/39/65 6/11/65
f 17/29/66 6/11/66 22/37/66
f 17/29/67 22/37/67 20/34/67
f 20/34/68 22/37/68 5/10/68
f 20/35/69 5/10/69 21/36/69
f 20/35/70 21/36/70 18/31/70
f 18/31/71 21/36/71 4/9/71
f 18/32/72 4/9/72 19/33/72
f 18/32/73 19/33/73 13/23/73
f 13/23/74 19/33/74 3/7/74
f 16/28/75 6/11/75 17/30/75
f 16/28/76 17/30/76 14/25/76
f 14/25/77 17/30/77 1/5/77
f 13/24/78 3/8/78 15/27/78
f 13/24/79 15/27/79 14/26/79
f 14/26/80 15/27/80 43/64/80 2/6/80
o tail_3
v -4.228309 0.466936 0.382213
v -3.457316 0.025248 -0.017304
v -4.275723 0.932441 0.424993
v -4.781531 1.369819 0.909494
v -4.275723 0.732930 0.766626
v -3.457315 -0.098056 0.193834
v -3.534037 0.655165 0.263065
v -4.352445 1.486150 0.835856
v -4.352445 1.362846 1.046994
v -3.534037 0.455653 0.604697
v -3.028229 0.018275 0.120197
v -3.581451 0.921159 0.647477
v -4.312962 0.700677 0.384073
v -3.831918 0.167446 0.124098
v -3.859784 0.441061 0.149242
v -3.378738 -0.164646 0.013372
v -3.831917 0.094971 0.248202
v -4.610269 0.957763 0.668854
v -4.638141 1.231382 0.694002
v -4.312962 0.583408 0.584878
v -4.638140 1.114113 0.894807
v -3.859784 0.251316 0.474152
v -3.126524 -0.096273 -0.029913
v -3.126523 -0.168749 0.094190
v -3.904880 0.811317 0.314038
v -3.423830 0.278080 0.054060
v -4.683237 1.556843 0.935500
v -4.385931 1.299761 0.650718
v -4.385930 1.110014 0.975630
v -4.683237 1.484367 1.059603
v -3.423830 0.088333 0.378972
v -3.904880 0.576777 0.715652
v -3.171620 0.273982 0.134883
v -3.949976 1.136779 0.555538
v -4.431022 1.552740 1.016318
v -3.949976 0.947033 0.880448
v -3.171620 0.156712 0.335688
v -3.496799 0.804686 0.444812
v -3.199492 0.430332 0.360836
v -3.977843 1.293123 0.781488
v -3.977843 1.220648 0.905592
v -3.496798 0.687417 0.645617
v -3.658550 0.233155 0.065969
vn -0.6465 -0.2284 -0.7279
vn -0.4379 -0.3171 -0.8412
vn -0.7788 -0.2776 -0.5625
vn -0.7788 -0.6263 0.0346
vn -0.6465 -0.7462 0.1588
vn -0.1118 -0.2034 -0.9727
vn -0.1458 0.3874 -0.9103
vn -0.6115 0.4151 -0.6736
vn -0.2673 -0.5257 0.8076
vn -0.1025 -0.6917 0.7149
vn 0.0602 0.2638 -0.9627
vn -0.0940 0.5006 -0.8605
vn -0.8714 0.4236 0.2474
vn -0.0940 -0.5035 0.8589
vn 0.0602 -0.7089 0.7028
vn 0.4541 0.6401 -0.6197
vn 0.3352 0.7936 -0.5078
vn 0.4379 0.3171 0.8412
vn 0.3483 -0.2170 0.9119
vn 0.8426 0.0365 0.5373
vn 0.7788 0.2776 0.5625
vn 0.6937 0.0045 0.7202
vn 0.4541 -0.2252 0.8620
vn 0.6465 0.2284 0.7279
vn 0.4429 -0.0372 0.8958
vn 0.3352 -0.0523 0.9407
vn 0.7002 0.6165 0.3600
vn 0.6031 0.6888 0.4023
vn 0.4379 0.8885 -0.1372
vn 0.6465 0.7462 -0.1588
vn 0.4429 0.7619 -0.4726
vn 0.3483 0.6876 -0.6371
vn 0.7788 0.6263 -0.0346
vn 0.6937 0.6295 -0.3500
vn 0.8426 0.4858 -0.2322
vn 0.6115 -0.4151 0.6736
vn 0.2833 -0.5458 0.7885
vn 0.2673 -0.4450 0.8547
vn 0.1458 -0.3874 0.9103
vn 0.0498 -0.4011 0.9147
vn 0.1025 -0.2828 0.9537
vn 0.1118 0.2034 0.9727
vn -0.1460 0.8543 0.4989
vn 0.1118 0.9471 -0.3008
vn 0.1025 0.6917 -0.7149
vn 0.0498 0.5996 -0.7988
vn 0.1458 0.6025 -0.7847
vn 0.2673 0.5257 -0.8076
vn 0.2833 0.4186 -0.8629
vn 0.6115 0.3827 -0.6925
vn 0.0940 -0.5006 0.8605
vn -0.0498 -0.5996 0.7988
vn -0.1458 -0.6025 0.7847
vn -0.0602 -0.2638 0.9627
vn -0.2833 -0.4186 0.8629
vn -0.6115 -0.3827 0.6925
vn -0.0602 0.7089 -0.7028
vn -0.2833 0.5458 -0.7885
vn -0.2673 0.4450 -0.8547
vn 0.0940 0.5035 -0.8589
vn -0.0498 0.4011 -0.9147
vn -0.1025 0.2828 -0.9537
vn 0.8714 -0.4236 -0.2474
vn 0.1460 -0.8543 -0.4989
vn -0.1118 -0.9471 0.3008
vn -0.3352 -0.7936 0.5078
vn -0.4429 -0.7619 0.4726
vn -0.3483 -0.6876 0.6371
vn -0.4541 -0.6401 0.6197
vn -0.6937 -0.6295 0.3500
vn -0.8426 -0.4858 0.2322
vn -0.8426 -0.0365 -0.5373
vn -0.6937 -0.0045 -0.7202
vn -0.4541 0.2252 -0.8620
vn -0.4379 -0.8885 0.1372
vn -0.6031 -0.6888 -0.4023
vn -0.7002 -0.6165 -0.3600
vn -0.3483 0.2170 -0.9119
vn -0.4429 0.0372 -0.8958
vn -0.3352 0.0523 -0.9407
vt 0.181819 0.000000
vt 0.909091 0.000000
vt 0.727273 0.000000
vt 0.545455 0.000000
vt 0.363637 0.000000
vt 0.272728 0.157461
vt 1.000000 0.157461
vt 0.090910 0.157461
vt 0.818182 0.157461
vt 0.636364 0.157461
vt 0.454546 0.157461
vt 0.181819 0.314921
vt 0.000000 0.314921
vt 0.909091 0.314921
vt 0.727273 0.314921
vt 0.545455 0.314921
vt 0.363637 0.314921
vt 0.454546 0.472382
vt 0.636364 0.472382
vt 0.818182 0.472382
vt 0.090910 0.472382
vt 0.272728 0.472382
vt 0.954545 0.078731
vt 0.136365 0.078731
vt 0.318182 0.078731
vt 0.227273 0.078731
vt 0.181819 0.157461
vt 0.363637 0.157461
vt 0.500000 0.078731
vt 0.409092 0.078731
vt 0.772727 0.078731
vt 0.863636 0.078731
vt 0.909091 0.157461
vt 0.590909 0.078731
vt 0.681818 0.078731
vt 0.727273 0.157461
vt 0.545455 0.157461
vt 0.318182 0.236191
vt 0.409092 0.236191
vt 0.136365 0.236191
vt 0.227273 0.236191
vt 0.863636 0.236191
vt 0.045455 0.236191
vt 0.954545 0.236191
vt 0.681818 0.236191
vt 0.772727 0.236191
vt 0.500000 0.236191
vt 0.590909 0.236191
vt 0.272728 0.314921
vt 0.090910 0.314921
vt 0.818182 0.314921
vt 0.636364 0.314921
vt 0.454546 0.314921
vt 0.136365 0.393651
vt 0.227273 0.393651
vt 0.409092 0.393651
vt 0.318182 0.393651
vt 0.863636 0.393651
vt 0.045455 0.393651
vt 0.681818 0.393651
vt 0.772727 0.393651
vt 0.500000 0.393651
vt 0.590909 0.393651
vt 0.227273 0.157461
s 0
usemtl Feathers
f 44/65/81 56/88/81 57/90/81
f 45/70/82 59/92/82 57/89/82
f 44/66/83 61/96/83 56/87/83
f 44/67/84 63/99/84 61/95/84
f 44/68/85 60/93/85 63/98/85
f 45/70/86 66/102/86 59/92/86
f 46/72/87 68/104/87 58/91/87
f 47/73/88 70/106/88 62/97/88
f 48/74/89 72/109/89 64/100/89
f 49/75/90 74/111/90 65/101/90
f 45/70/91 69/105/91 66/102/91
f 46/72/92 71/107/92 68/104/92
f 47/73/93 73/110/93 70/106/93
f 48/74/94 75/112/94 72/109/94
f 49/75/95 67/103/95 74/111/95
f 50/76/96 81/119/96 76/113/96
f 51/77/97 83/123/97 77/114/97
f 52/79/98 84/125/98 78/115/98
f 53/80/99 85/127/99 79/116/99
f 54/81/100 82/120/100 80/117/100
f 82/120/101 55/82/101 85/126/101
f 82/120/102 85/126/102 80/117/102
f 80/117/103 85/126/103 53/80/103
f 85/127/104 55/83/104 84/124/104
f 85/127/105 84/124/105 79/116/105
f 79/116/106 84/124/106 52/79/106
f 84/125/107 55/84/107 83/122/107
f 84/125/108 83/122/108 78/115/108
f 78/115/109 83/122/109 51/78/109
f 83/123/110 55/85/110 81/118/110
f 83/123/111 81/118/111 77/114/111
f 77/114/112 81/118/112 50/76/112
f 81/119/113 55/86/113 82/121/113
f 81/119/114 82/121/114 76/113/114
f 76/113/115 82/121/115 54/81/115
f 67/103/116 54/81/116 80/117/116
f 67/103/117 80/117/117 74/111/117
f 74/111/118 80/117/118 53/80/118
f 75/112/119 53/80/119 79/116/119
f 75/112/120 79/116/120 72/109/120
f 72/109/121 79/116/121 52/79/121
f 73/110/122 52/79/122 78/115/122
f 73/110/123 78/115/123 70/106/123
f 70/106/124 78/115/124 51/78/124
f 71/107/125 51/77/125 77/114/125
f 71/107/126 77/114/126 68/104/126
f 68/104/127 77/114/127 50/76/127
f 69/105/128 50/76/128 76/113/128
f 69/105/129 76/113/129 66/102/129
f 66/102/130 76/113/130 54/81/130
f 74/111/131 53/80/131 75/112/131
f 74/111/132 75/112/132 65/101/132
f 65/101/133 75/112/133 48/74/133
f 72/109/134 52/79/134 73/110/134
f 72/109/135 73/110/135 64/100/135
f 64/100/136 73/110/136 47/73/136
f 70/106/137 51/78/137 71/108/137
f 70/106/138 71/108/138 62/97/138
f 62/97/139 71/108/139 46/71/139
f 68/104/140 50/76/140 69/105/140
f 68/104/141 69/105/141 58/91/141
f 58/91/142 69/105/142 45/70/142 86/128/142
f 66/102/143 54/81/143 67/103/143
f 66/102/144 67/103/144 59/92/144
f 59/92/145 67/103/145 49/75/145
f 60/93/146 49/75/146 65/101/146
f 60/93/147 65/101/147 63/98/147
f 63/98/148 65/101/148 48/74/148
f 63/99/149 48/74/149 64/100/149
f 63/99/150 64/100/150 61/95/150
f 61/95/151 64/100/151 47/73/151
f 61/96/152 47/73/152 62/97/152
f 61/96/153 62/97/153 56/87/153
f 56/87/154 62/97/154 46/71/154
f 59/92/155 49/75/155 60/94/155
f 59/92/156 60/94/156 57/89/156
f 57/89/157 60/94/157 44/69/157
f 56/88/158 46/72/158 58/91/158
f 56/88/159 58/91/159 57/90/159
f 57/90/160 58/91/160 86/128/160 45/70/160
o tail_1
v -4.228309 0.466936 -0.382213
v -3.457315 -0.098056 -0.193834
v -4.275723 0.732930 -0.766626
v -4.781531 1.369819 -0.909494
v -4.275723 0.932441 -0.424993
v -3.457316 0.025248 0.017304
v -3.534037 0.455653 -0.604697
v -4.352445 1.362846 -1.046994
v -4.352445 1.486150 -0.835856
v -3.534037 0.655165 -0.263065
v -3.028229 0.018275 -0.120197
v -3.581451 0.921159 -0.647477
v -4.312962 0.583408 -0.584878
v -3.831917 0.094971 -0.248202
v -3.859784 0.251316 -0.474152
v -3.378738 -0.164646 -0.013372
v -3.831918 0.167446 -0.124098
v -4.610269 0.957763 -0.668854
v -4.638140 1.114113 -0.894807
v -4.312962 0.700677 -0.384073
v -4.638141 1.231382 -0.694002
v -3.859784 0.441061 -0.149242
v -3.126523 -0.168749 -0.094190
v -3.126524 -0.096273 0.029913
v -3.904880 0.576777 -0.715652
v -3.423830 0.088333 -0.378972
v -4.683237 1.484367 -1.059603
v -4.385930 1.110014 -0.975630
v -4.385931 1.299761 -0.650718
v -4.683237 1.556843 -0.935500
v -3.423830 0.278080 -0.054060
v -3.904880 0.811317 -0.314038
v -3.171620 0.156712 -0.335688
v -3.949976 0.947033 -0.880448
v -4.431022 1.552740 -1.016318
v -3.949976 1.136779 -0.555538
v -3.171620 0.273982 -0.134883
v -3.496798 0.687417 -0.645617
v -3.199492 0.430332 -0.360836
v -3.977843 1.220648 -0.905592
v -3.977843 1.293123 -0.781488
v -3.496799 0.804686 -0.444812
v -3.658550 0.076630 -0.333993
vn -0.6465 -0.7462 -0.1588
vn -0.4379 -0.8885 -0.1372
vn -0.7788 -0.6263 -0.0346
vn -0.7788 -0.2776 0.5625
vn -0.6465 -0.2284 0.7279
vn -0.1118 -0.9471 -0.3008
vn -0.1458 -0.6025 -0.7847
vn -0.6115 -0.3827 -0.6925
vn -0.2673 0.4450 0.8547
vn -0.1025 0.2828 0.9537
vn 0.0602 -0.7089 -0.7028
vn -0.0940 -0.5035 -0.8589
vn -0.8714 0.4236 -0.2474
vn -0.0940 0.5006 0.8605
vn 0.0602 0.2638 0.9627
vn 0.4541 -0.2252 -0.8620
vn 0.3352 -0.0523 -0.9407
vn 0.4379 0.8885 0.1372
vn 0.3483 0.6876 0.6371
vn 0.8426 0.4858 0.2322
vn 0.7788 0.6263 0.0346
vn 0.6937 0.6295 0.3500
vn 0.4541 0.6401 0.6197
vn 0.6465 0.7462 0.1588
vn 0.4429 0.7619 0.4726
vn 0.3352 0.7936 0.5078
vn 0.7002 0.6165 -0.3600
vn 0.6031 0.6888 -0.4023
vn 0.4379 0.3171 -0.8412
vn 0.6465 0.2284 -0.7279
vn 0.4429 -0.0372 -0.8958
vn 0.3483 -0.2170 -0.9119
vn 0.7788 0.2776 -0.5625
vn 0.6937 0.0045 -0.7202
vn 0.8426 0.0365 -0.5373
vn 0.6115 0.3827 0.6925
vn 0.2833 0.4186 0.8629
vn 0.2673 0.5257 0.8076
vn 0.1458 0.6025 0.7847
vn 0.0498 0.5996 0.7988
vn 0.1025 0.6917 0.7149
vn 0.1118 0.9471 0.3008
vn -0.1460 0.8543 -0.4989
vn 0.1118 0.2034 -0.9727
vn 0.1025 -0.2828 -0.9537
vn 0.0498 -0.4011 -0.9147
vn 0.1458 -0.3874 -0.9103
vn 0.2673 -0.4450 -0.8547
vn 0.2833 -0.5458 -0.7885
vn 0.6115 -0.4151 -0.6736
vn 0.0940 0.5035 0.8589
vn -0.0498 0.4011 0.9147
vn -0.1458 0.3874 0.9103
vn -0.0602 0.7089 0.7028
vn -0.2833 0.5458 0.7885
vn -0.6115 0.4151 0.6736
vn -0.0602 -0.2638 -0.9627
vn -0.2833 -0.4186 -0.8629
vn -0.2673 -0.5257 -0.8076
vn 0.0940 -0.5006 -0.8605
vn -0.0498 -0.5996 -0.7988
vn -0.1025 -0.6917 -0.7149
vn 0.8714 -0.4236 0.2474
vn 0.1460 -0.8543 0.4989
vn -0.1118 -0.2034 0.9727
vn -0.3352 0.0523 0.9407
vn -0.4429 0.0372 0.8958
vn -0.3483 0.2170 0.9119
vn -0.4541 0.2252 0.8620
vn -0.6937 -0.0045 0.7202
vn -0.8426 -0.0365 0.5373
vn -0.8426 -0.4858 -0.2322
vn -0.6937 -0.6295 -0.3500
vn -0.4541 -0.6401 -0.6197
vn -0.4379 -0.3171 0.8412
vn -0.6031 -0.6888 0.4023
vn -0.7002 -0.6165 0.3600
vn -0.3483 -0.6876 -0.6371
vn -0.4429 -0.7619 -0.4726
vn -0.3352 -0.7936 -0.5078
vt 0.181819 0.000000
vt 0.909091 0.000000
vt 0.727273 0.000000
vt 0.545455 0.000000
vt 0.363637 0.000000
vt 0.272728 0.157461
vt 1.000000 0.157461
vt 0.090910 0.157461
vt 0.818182 0.157461
vt 0.636364 0.157461
vt 0.454546 0.157461
vt 0.181819 0.314921
vt 0.000000 0.314921
vt 0.909091 0.314921
vt 0.727273 0.314921
vt 0.545455 0.314921
vt 0.363637 0.314921
vt 0.454546 0.472382
vt 0.636364 0.472382
vt 0.818182 0.472382
vt 0.090910 0.472382
vt 0.272728 0.472382
vt 0.954545 0.078731
vt 0.136365 0.078731
vt 0.318182 0.078731
vt 0.227273 0.078731
vt 0.181819 0.157461
vt 0.363637 0.157461
vt 0.500000 0.078731
vt 0.409092 0.078731
vt 0.772727 0.078731
vt 0.863636 0.078731
vt 0.909091 0.157461
vt 0.590909 0.078731
vt 0.681818 0.078731
vt 0.727273 0.157461
vt 0.545455 0.157461
vt 0.318182 0.236191
vt 0.409092 0.236191
vt 0.136365 0.236191
vt 0.227273 0.236191
vt 0.863636 0.236191
vt 0.045455 0.236191
vt 0.954545 0.236191
vt 0.681818 0.236191
vt 0.772727 0.236191
vt 0.500000 0.236191
vt 0.590909 0.236191
vt 0.272728 0.314921
vt 0.090910 0.314921
vt 0.818182 0.314921
vt 0.636364 0.314921
vt 0.454546 0.314921
vt 0.136365 0.393651
vt 0.227273 0.393651
vt 0.409092 0.393651
vt 0.318182 0.393651
vt 0.863636 0.393651
vt 0.045455 0.393651
vt 0.681818 0.393651
vt 0.772727 0.393651
vt 0.500000 0.393651
vt 0.590909 0.393651
vt 0.227273 0.157461
s 0
usemtl Feathers
f 87/129/161 99/152/161 100/154/161
f 88/134/162 102/156/162 100/153/162
f 87/130/163 104/160/163 99/151/163
f 87/131/164 106/163/164 104/159/164
f 87/132/165 103/157/165 106/162/165
f 88/134/166 109/166/166 102/156/166
f 89/136/167 111/168/167 101/155/167
f 90/137/168 113/170/168 105/161/168
f 91/138/169 115/173/169 107/164/169
f 92/139/170 117/175/170 108/165/170
f 88/134/171 112/169/171 109/166/171
f 89/136/172 114/171/172 111/168/172
f 90/137/173 116/174/173 113/170/173
f 91/138/174 118/176/174 115/173/174
f 92/139/175 110/167/175 117/175/175
f 93/140/176 124/183/176 119/177/176
f 94/141/177 126/187/177 120/178/177
f 95/143/178 127/189/178 121/179/178
f 96/144/179 128/191/179 122/180/179
f 97/145/180 125/184/180 123/181/180
f 125/184/181 98/146/181 128/190/181
f 125/184/182 128/190/182 123/181/182
f 123/181/183 128/190/183 96/144/183
f 128/191/184 98/147/184 127/188/184
f 128/191/185 127/188/185 122/180/185
f 122/180/186 127/188/186 95/143/186
f 127/189/187 98/148/187 126/186/187
f 127/189/188 126/186/188 121/179/188
f 121/179/189 126/186/189 94/142/189
f 126/187/190 98/149/190 124/182/190
f 126/187/191 124/182/191 120/178/191
f 120/178/192 124/182/192 93/140/192
f 124/183/193 98/150/193 125/185/193
f 124/183/194 125/185/194 119/177/194
f 119/177/195 125/185/195 97/145/195
f 110/167/196 97/145/196 123/181/196
f 110/167/197 123/181/197 117/175/197
f 117/175/198 123/181/198 96/144/198
f 118/176/199 96/144/199 122/180/199
f 118/176/200 122/180/200 115/173/200
f 115/173/201 122/180/201 95/143/201
f 116/174/202 95/143/202 121/179/202
f 116/174/203 121/179/203 113/170/203
f 113/170/204 121/179/204 94/142/204
f 114/171/205 94/141/205 120/178/205
f 114/171/206 120/178/206 111/168/206
f 111/168/207 120/178/207 93/140/207
f 112/169/208 93/140/208 119/177/208
f 112/169/209 119/177/209 109/166/209
f 109/166/210 119/177/210 97/145/210
f 117/175/211 96/144/211 118/176/211
f 117/175/212 118/176/212 108/165/212
f 108/165/213 118/176/213 91/138/213
f 115/173/214 95/143/214 116/174/214
f 115/173/215 116/174/215 107/164/215
f 107/164/216 116/174/216 90/137/216
f 113/170/217 94/142/217 114/172/217
f 113/170/218 114/172/218 105/161/218
f 105/161/219 114/172/219 89/135/219
f 111/168/220 93/140/220 112/169/220
f 111/168/221 112/169/221 101/155/221
f 101/155/222 112/169/222 88/134/222 129/192/222
f 109/166/223 97/145/223 110/167/223
f 109/166/224 110/167/224 102/156/224
f 102/156/225 110/167/225 92/139/225
f 103/157/226 92/139/226 108/165/226
f 103/157/227 108/165/227 106/162/227
f 106/162/228 108/165/228 91/138/228
f 106/163/229 91/138/229 107/164/229
f 106/163/230 107/164/230 104/159/230
f 104/159/231 107/164/231 90/137/231
f 104/160/232 90/137/232 105/161/232
f 104/160/233 105/161/233 99/151/233
f 99/151/234 105/161/234 89/135/234
f 102/156/235 92/139/235 103/158/235
f 102/156/236 103/158/236 100/153/236
f 100/153/237 103/158/237 87/133/237
f 99/152/238 89/136/238 101/155/238
f 99/152/239 101/155/239 100/154/239
f 100/154/240 101/155/240 129/192/240 88/134/240
