# Blender 3.5.0
# www.blender.org
mtllib bird_head_beak.mtl
o head._beak
v 4.836648 2.668328 0.000000
v 4.771224 1.214330 0.000000
v 4.921279 2.000000 0.461794
v 4.921279 2.000000 -0.461794
v 7.152096 1.926166 -0.066695
v 6.089247 2.022689 0.000000
v 7.152096 1.926166 0.066695
v 5.267638 1.812696 0.000000
v 4.945606 2.005743 -0.461794
v 4.945606 2.005743 0.461794
vn 0.2261 0.7601 -0.6092
vn 0.2331 -0.8276 0.5106
vn 0.0904 0.9959 -0.0000
vn 0.0601 -0.9982 -0.0000
vn 0.2261 0.7601 0.6092
vn 0.2331 -0.8276 -0.5106
vt 0.363637 0.314921
vt 0.363637 0.157461
vt 0.318182 0.236191
vt 0.409092 0.236191
vt 0.409092 0.236191
vt 0.363637 0.314921
vt 0.318182 0.236191
vt 0.363637 0.157461
s 0
usemtl Material.005
f 4/4/1 1/1/1 6/6/1 5/5/1
f 3/3/2 2/2/2 8/8/2 7/7/2
f 7/7/3 5/5/3 6/6/3
f 7/7/4 8/8/4 5/5/4
f 1/1/5 3/3/5 7/7/5 6/6/5
f 2/2/6 4/4/6 5/5/6 8/8/6
l 9 4
l 3 10
